<svg width="1600" height="1200" viewBox="0 0 1600 1200" fill="none" xmlns="http://www.w3.org/2000/svg">
  <rect width="1600" height="1200" rx="56" fill="url(#bg)"/>
  <g opacity="0.75">
    <circle cx="340" cy="210" r="220" fill="url(#pinkGlow)"/>
    <circle cx="1230" cy="250" r="260" fill="url(#blueGlow)"/>
    <circle cx="380" cy="980" r="260" fill="url(#cyanGlow)"/>
  </g>
  <g opacity="0.24">
    <path d="M95 896C279 717 491 620 730 604" stroke="white" stroke-width="6" stroke-linecap="round" stroke-dasharray="14 16"/>
    <path d="M856 347C1044 408 1177 546 1262 763" stroke="white" stroke-width="6" stroke-linecap="round" stroke-dasharray="14 16"/>
  </g>
  <g opacity="0.7">
    <rect x="112" y="122" width="28" height="28" rx="8" fill="#FF5AA5"/>
    <rect x="176" y="262" width="18" height="18" rx="4" fill="#8DFF5A"/>
    <rect x="1314" y="174" width="20" height="20" rx="6" fill="#63E8FF"/>
    <rect x="1388" y="300" width="26" height="26" rx="8" fill="#FFD84F"/>
    <rect x="1318" y="924" width="24" height="24" rx="6" fill="#FF5AA5"/>
    <rect x="243" y="1023" width="22" height="22" rx="6" fill="#7268FF"/>
  </g>
  <g transform="translate(812 628)">
    <circle r="282" fill="url(#centerGlow)" opacity="0.9"/>
    <circle r="208" fill="#17121F" fill-opacity="0.78"/>
    <circle r="156" fill="#0D0A14" fill-opacity="0.88"/>
    <g>
      <path d="M0 -348 L15 -244" stroke="url(#ring)" stroke-width="12" stroke-linecap="round"/>
      <path d="M42 -345 L48 -238" stroke="url(#ring)" stroke-width="12" stroke-linecap="round"/>
      <path d="M84 -334 L78 -224" stroke="url(#ring)" stroke-width="12" stroke-linecap="round"/>
      <path d="M125 -315 L110 -208" stroke="url(#ring)" stroke-width="12" stroke-linecap="round"/>
      <path d="M163 -290 L144 -186" stroke="url(#ring)" stroke-width="12" stroke-linecap="round"/>
      <path d="M198 -257 L180 -156" stroke="url(#ring)" stroke-width="12" stroke-linecap="round"/>
      <path d="M228 -218 L216 -124" stroke="url(#ring)" stroke-width="12" stroke-linecap="round"/>
      <path d="M253 -174 L249 -88" stroke="url(#ring)" stroke-width="12" stroke-linecap="round"/>
      <path d="M270 -126 L275 -45" stroke="url(#ring)" stroke-width="12" stroke-linecap="round"/>
      <path d="M280 -76 L293 -4" stroke="url(#ring)" stroke-width="12" stroke-linecap="round"/>
      <path d="M282 -24 L304 42" stroke="url(#ring)" stroke-width="12" stroke-linecap="round"/>
      <path d="M275 28 L304 91" stroke="url(#ring)" stroke-width="12" stroke-linecap="round"/>
      <path d="M261 79 L298 140" stroke="url(#ring)" stroke-width="12" stroke-linecap="round"/>
      <path d="M239 128 L285 188" stroke="url(#ring)" stroke-width="12" stroke-linecap="round"/>
      <path d="M209 172 L264 234" stroke="url(#ring)" stroke-width="12" stroke-linecap="round"/>
      <path d="M173 209 L236 271" stroke="url(#ring)" stroke-width="12" stroke-linecap="round"/>
      <path d="M130 239 L199 303" stroke="url(#ring)" stroke-width="12" stroke-linecap="round"/>
      <path d="M83 261 L157 325" stroke="url(#ring)" stroke-width="12" stroke-linecap="round"/>
      <path d="M34 275 L109 338" stroke="url(#ring)" stroke-width="12" stroke-linecap="round"/>
      <path d="M-17 281 L59 343" stroke="url(#ring)" stroke-width="12" stroke-linecap="round"/>
      <path d="M-68 279 L8 340" stroke="url(#ring)" stroke-width="12" stroke-linecap="round"/>
      <path d="M-118 269 L-42 328" stroke="url(#ring)" stroke-width="12" stroke-linecap="round"/>
      <path d="M-166 251 L-92 307" stroke="url(#ring)" stroke-width="12" stroke-linecap="round"/>
      <path d="M-211 225 L-140 278" stroke="url(#ring)" stroke-width="12" stroke-linecap="round"/>
      <path d="M-250 192 L-183 241" stroke="url(#ring)" stroke-width="12" stroke-linecap="round"/>
      <path d="M-234 139 L-177 174" stroke="url(#ring)" stroke-width="12" stroke-linecap="round"/>
      <path d="M-274 104 L-217 133" stroke="url(#ring)" stroke-width="12" stroke-linecap="round"/>
      <path d="M-302 61 L-247 84" stroke="url(#ring)" stroke-width="12" stroke-linecap="round"/>
      <path d="M-320 12 L-269 30" stroke="url(#ring)" stroke-width="12" stroke-linecap="round"/>
      <path d="M-326 -39 L-277 -27" stroke="url(#ring)" stroke-width="12" stroke-linecap="round"/>
      <path d="M-319 -91 L-271 -84" stroke="url(#ring)" stroke-width="12" stroke-linecap="round"/>
      <path d="M-301 -141 L-255 -141" stroke="url(#ring)" stroke-width="12" stroke-linecap="round"/>
      <path d="M-273 -185 L-229 -190" stroke="url(#ring)" stroke-width="12" stroke-linecap="round"/>
      <path d="M-238 -224 L-195 -235" stroke="url(#ring)" stroke-width="12" stroke-linecap="round"/>
      <path d="M-197 -257 L-155 -274" stroke="url(#ring)" stroke-width="12" stroke-linecap="round"/>
      <path d="M-151 -283 L-111 -304" stroke="url(#ring)" stroke-width="12" stroke-linecap="round"/>
      <path d="M-101 -302 L-64 -329" stroke="url(#ring)" stroke-width="12" stroke-linecap="round"/>
      <path d="M-49 -314 L-14 -344" stroke="url(#ring)" stroke-width="12" stroke-linecap="round"/>
    </g>
    <rect x="-90" y="-90" width="180" height="180" rx="40" fill="#150C22" fill-opacity="0.94" stroke="#FFFFFF" stroke-opacity="0.18"/>
    <path d="M-53 -48H17C40 -48 58 -30 58 -8C58 12 43 30 24 32L-4 35V72H-34V-48H-53Z" fill="url(#logoWarm)"/>
    <rect x="-34" y="-11" width="74" height="28" rx="14" fill="#FFF6D8"/>
    <path d="M16 -58H53V58C53 78 37 94 17 94H-3V64H9C17 64 23 58 23 50V-58H16Z" fill="#F4F4F1"/>
  </g>
  <g filter="url(#panelShadow)">
    <rect x="1160" y="188" width="360" height="744" rx="26" fill="#17111F" fill-opacity="0.88" stroke="#FFFFFF" stroke-opacity="0.12"/>
    <text x="1190" y="236" fill="#FFF4E9" font-family="Arial, sans-serif" font-size="26" font-weight="700" letter-spacing="4">LIVE WALLPAPER</text>
    <text x="1190" y="274" fill="#E4D7FF" font-family="Arial, sans-serif" font-size="18">Audio-reactive editor with layers, FX and saved profiles.</text>
    <text x="1190" y="334" fill="#FF6BC2" font-family="Arial, sans-serif" font-size="16" font-weight="700" letter-spacing="3">MODULES</text>
    <g fill="#0A0F14" fill-opacity="0.75" stroke="#63E8FF" stroke-opacity="0.22">
      <rect x="1190" y="356" width="154" height="44" rx="12"/>
      <rect x="1356" y="356" width="134" height="44" rx="12"/>
      <rect x="1190" y="412" width="132" height="44" rx="12"/>
      <rect x="1334" y="412" width="156" height="44" rx="12"/>
    </g>
    <text x="1212" y="384" fill="#F5FDFF" font-family="Arial, sans-serif" font-size="16">Layers + FX</text>
    <text x="1382" y="384" fill="#F5FDFF" font-family="Arial, sans-serif" font-size="16">Audio Spectrum</text>
    <text x="1212" y="440" fill="#F5FDFF" font-family="Arial, sans-serif" font-size="16">Brand Logo</text>
    <text x="1362" y="440" fill="#F5FDFF" font-family="Arial, sans-serif" font-size="16">Profiles &amp; Slots</text>
    <text x="1190" y="516" fill="#63E8FF" font-family="Arial, sans-serif" font-size="16" font-weight="700" letter-spacing="3">CONTROL STRIPS</text>
    <g>
      <line x1="1190" y1="566" x2="1490" y2="566" stroke="#3DE0FF" stroke-width="6" stroke-linecap="round"/>
      <circle cx="1322" cy="566" r="13" fill="#3DE0FF"/>
      <line x1="1190" y1="636" x2="1490" y2="636" stroke="#3DE0FF" stroke-width="6" stroke-linecap="round"/>
      <circle cx="1424" cy="636" r="13" fill="#3DE0FF"/>
      <line x1="1190" y1="706" x2="1490" y2="706" stroke="#3DE0FF" stroke-width="6" stroke-linecap="round"/>
      <circle cx="1285" cy="706" r="13" fill="#3DE0FF"/>
    </g>
    <text x="1190" y="552" fill="#FFF4E9" font-family="Arial, sans-serif" font-size="16">Base Size</text>
    <text x="1190" y="622" fill="#FFF4E9" font-family="Arial, sans-serif" font-size="16">Audio Sensitivity</text>
    <text x="1190" y="692" fill="#FFF4E9" font-family="Arial, sans-serif" font-size="16">Reactive Scale</text>
    <text x="1190" y="790" fill="#FF6BC2" font-family="Arial, sans-serif" font-size="16" font-weight="700" letter-spacing="3">REAL CLIENT READY</text>
    <text x="1190" y="828" fill="#F5FDFF" font-family="Arial, sans-serif" font-size="18">Reusable presets</text>
    <text x="1190" y="860" fill="#F5FDFF" font-family="Arial, sans-serif" font-size="18">Brand overlays</text>
    <text x="1190" y="892" fill="#F5FDFF" font-family="Arial, sans-serif" font-size="18">Fast visual iteration</text>
  </g>
  <g filter="url(#trackShadow)">
    <rect x="480" y="963" width="640" height="108" rx="32" fill="#2A2034" fill-opacity="0.72"/>
    <text x="542" y="1031" fill="#F5FDFF" font-family="Arial, sans-serif" font-size="28" font-style="italic">Future Core • Techcore Mix • Visual Sync</text>
  </g>
  <defs>
    <linearGradient id="bg" x1="142" y1="88" x2="1434" y2="1126" gradientUnits="userSpaceOnUse">
      <stop stop-color="#A4D8FF"/>
      <stop offset="0.34" stop-color="#F8D6F8"/>
      <stop offset="0.68" stop-color="#B8C7FF"/>
      <stop offset="1" stop-color="#84F0FF"/>
    </linearGradient>
    <radialGradient id="pinkGlow" cx="0" cy="0" r="1" gradientUnits="userSpaceOnUse" gradientTransform="translate(340 210) rotate(90) scale(220)">
      <stop stop-color="#FF77BC" stop-opacity="0.6"/>
      <stop offset="1" stop-color="#FF77BC" stop-opacity="0"/>
    </radialGradient>
    <radialGradient id="blueGlow" cx="0" cy="0" r="1" gradientUnits="userSpaceOnUse" gradientTransform="translate(1230 250) rotate(90) scale(260)">
      <stop stop-color="#59B4FF" stop-opacity="0.56"/>
      <stop offset="1" stop-color="#59B4FF" stop-opacity="0"/>
    </radialGradient>
    <radialGradient id="cyanGlow" cx="0" cy="0" r="1" gradientUnits="userSpaceOnUse" gradientTransform="translate(380 980) rotate(90) scale(260)">
      <stop stop-color="#4FF5FF" stop-opacity="0.45"/>
      <stop offset="1" stop-color="#4FF5FF" stop-opacity="0"/>
    </radialGradient>
    <radialGradient id="centerGlow" cx="0" cy="0" r="1" gradientUnits="userSpaceOnUse" gradientTransform="translate(0 0) rotate(90) scale(282)">
      <stop stop-color="#FFFFFF" stop-opacity="0.25"/>
      <stop offset="1" stop-color="#FFFFFF" stop-opacity="0"/>
    </radialGradient>
    <linearGradient id="ring" x1="-320" y1="-340" x2="320" y2="340" gradientUnits="userSpaceOnUse">
      <stop stop-color="#FFF34F"/>
      <stop offset="0.18" stop-color="#54FF68"/>
      <stop offset="0.42" stop-color="#52F0FF"/>
      <stop offset="0.68" stop-color="#7B56FF"/>
      <stop offset="0.84" stop-color="#FF4AB3"/>
      <stop offset="1" stop-color="#FF7A47"/>
    </linearGradient>
    <linearGradient id="logoWarm" x1="-53" y1="-48" x2="58" y2="72" gradientUnits="userSpaceOnUse">
      <stop stop-color="#FF4B5C"/>
      <stop offset="0.48" stop-color="#FFD542"/>
      <stop offset="1" stop-color="#FF9A2B"/>
    </linearGradient>
    <filter id="panelShadow" x="1120" y="156" width="440" height="824" filterUnits="userSpaceOnUse" color-interpolation-filters="sRGB">
      <feFlood flood-opacity="0" result="BackgroundImageFix"/>
      <feColorMatrix in="SourceAlpha" type="matrix" values="0 0 0 0 0 0 0 0 0 0 0 0 0 0 0 0 0 0 127 0" result="hardAlpha"/>
      <feOffset dy="14"/>
      <feGaussianBlur stdDeviation="20"/>
      <feComposite in2="hardAlpha" operator="out"/>
      <feColorMatrix type="matrix" values="0 0 0 0 0.08 0 0 0 0 0.04 0 0 0 0 0.14 0 0 0 0.28 0"/>
      <feBlend mode="normal" in2="BackgroundImageFix" result="effect1_dropShadow_0_1"/>
      <feBlend mode="normal" in="SourceGraphic" in2="effect1_dropShadow_0_1" result="shape"/>
    </filter>
    <filter id="trackShadow" x="444" y="939" width="712" height="180" filterUnits="userSpaceOnUse" color-interpolation-filters="sRGB">
      <feFlood flood-opacity="0" result="BackgroundImageFix"/>
      <feColorMatrix in="SourceAlpha" type="matrix" values="0 0 0 0 0 0 0 0 0 0 0 0 0 0 0 0 0 0 127 0" result="hardAlpha"/>
      <feOffset dy="12"/>
      <feGaussianBlur stdDeviation="18"/>
      <feComposite in2="hardAlpha" operator="out"/>
      <feColorMatrix type="matrix" values="0 0 0 0 0.09 0 0 0 0 0.03 0 0 0 0 0.14 0 0 0 0.22 0"/>
      <feBlend mode="normal" in2="BackgroundImageFix" result="effect1_dropShadow_0_1"/>
      <feBlend mode="normal" in="SourceGraphic" in2="effect1_dropShadow_0_1" result="shape"/>
    </filter>
  </defs>
</svg>
